# RTMC synthetic reference. SIMULATION ONLY; meters, Z up.
# Each object is a closed box. Compound objects may overlap at joints.
o upper_boom
v 0.0000000000 -0.0900000000 -0.0900000000
v 0.0000000000 -0.0900000000 0.0900000000
v 0.0000000000 0.0900000000 -0.0900000000
v 0.0000000000 0.0900000000 0.0900000000
v 0.3100000000 -0.0900000000 -0.0900000000
v 0.3100000000 -0.0900000000 0.0900000000
v 0.3100000000 0.0900000000 -0.0900000000
v 0.3100000000 0.0900000000 0.0900000000
f 1 2 4
f 1 4 3
f 5 7 8
f 5 8 6
f 1 5 6
f 1 6 2
f 3 4 8
f 3 8 7
f 1 3 7
f 1 7 5
f 2 6 8
f 2 8 4
o a4_bearing
v 0.2100000000 -0.1400000000 -0.1400000000
v 0.2100000000 -0.1400000000 0.1400000000
v 0.2100000000 0.1400000000 -0.1400000000
v 0.2100000000 0.1400000000 0.1400000000
v 0.4100000000 -0.1400000000 -0.1400000000
v 0.4100000000 -0.1400000000 0.1400000000
v 0.4100000000 0.1400000000 -0.1400000000
v 0.4100000000 0.1400000000 0.1400000000
f 9 10 12
f 9 12 11
f 13 15 16
f 13 16 14
f 9 13 14
f 9 14 10
f 11 12 16
f 11 16 15
f 9 11 15
f 9 15 13
f 10 14 16
f 10 16 12
