# RTMC synthetic reference. SIMULATION ONLY; meters, Z up.
# Each object is a closed box. Compound objects may overlap at joints.
o carm_sector_00
v -0.1100000000 0.0091368335 0.7005988597
v -0.1100000000 -0.1005051680 0.6934125433
v -0.1100000000 -0.0001176278 0.8417946537
v -0.1100000000 -0.1097596293 0.8346083373
v 0.1100000000 0.0091368335 0.7005988597
v 0.1100000000 -0.1005051680 0.6934125433
v 0.1100000000 -0.0001176278 0.8417946537
v 0.1100000000 -0.1097596293 0.8346083373
f 1 2 4
f 1 4 3
f 5 7 8
f 5 8 6
f 1 5 6
f 1 6 2
f 3 4 8
f 3 8 7
f 1 3 7
f 1 7 5
f 2 6 8
f 2 8 4
o carm_sector_01
v -0.1100000000 -0.0823878349 0.6957977354
v -0.1100000000 -0.1901538313 0.6743617459
v -0.1100000000 -0.1099928723 0.8345776303
v -0.1100000000 -0.2177588687 0.8131416408
v 0.1100000000 -0.0823878349 0.6957977354
v 0.1100000000 -0.1901538313 0.6743617459
v 0.1100000000 -0.1099928723 0.8345776303
v 0.1100000000 -0.2177588687 0.8131416408
f 9 10 12
f 9 12 11
f 13 15 16
f 13 16 14
f 9 13 14
f 9 14 10
f 11 12 16
f 11 16 15
f 9 11 15
f 9 15 13
f 10 14 16
f 10 16 12
o carm_sector_02
v -0.1100000000 -0.1725028245 0.6790913190
v -0.1100000000 -0.2765489098 0.6437724322
v -0.1100000000 -0.2179861082 0.8130807522
v -0.1100000000 -0.3220321935 0.7777618654
v 0.1100000000 -0.1725028245 0.6790913190
v 0.1100000000 -0.2765489098 0.6437724322
v 0.1100000000 -0.2179861082 0.8130807522
v 0.1100000000 -0.3220321935 0.7777618654
f 17 18 20
f 17 20 19
f 21 23 24
f 21 24 22
f 17 21 22
f 17 22 18
f 19 20 24
f 19 24 23
f 17 19 23
f 17 23 21
f 18 22 24
f 18 24 20
o carm_sector_03
v -0.1100000000 -0.2596662429 0.6507654618
v -0.1100000000 -0.3582121597 0.6021679936
v -0.1100000000 -0.3222495414 0.7776718370
v -0.1100000000 -0.4207954582 0.7290743688
v 0.1100000000 -0.2596662429 0.6507654618
v 0.1100000000 -0.3582121597 0.6021679936
v 0.1100000000 -0.3222495414 0.7776718370
v 0.1100000000 -0.4207954582 0.7290743688
f 25 26 28
f 25 28 27
f 29 31 32
f 29 32 30
f 25 29 30
f 25 30 26
f 27 28 32
f 27 32 31
f 25 27 31
f 25 31 29
f 26 30 32
f 26 32 28
o carm_sector_04
v -0.1100000000 -0.3423867000 0.6113048271
v -0.1100000000 -0.4337463003 0.5502602938
v -0.1100000000 -0.4209991956 0.7289567410
v -0.1100000000 -0.5123587959 0.6679122077
v 0.1100000000 -0.3423867000 0.6113048271
v 0.1100000000 -0.4337463003 0.5502602938
v 0.1100000000 -0.4209991956 0.7289567410
v 0.1100000000 -0.5123587959 0.6679122077
f 33 34 36
f 33 36 35
f 37 39 40
f 37 40 38
f 33 37 38
f 33 38 34
f 35 36 40
f 35 40 39
f 33 35 39
f 33 39 37
f 34 38 40
f 34 40 36
o carm_sector_05
v -0.1100000000 -0.4192488257 0.5613845973
v -0.1100000000 -0.5018589215 0.4889374877
v -0.1100000000 -0.5125454368 0.6677689931
v -0.1100000000 -0.5951555326 0.5953218835
v 0.1100000000 -0.4192488257 0.5613845973
v 0.1100000000 -0.5018589215 0.4889374877
v 0.1100000000 -0.5125454368 0.6677689931
v 0.1100000000 -0.5951555326 0.5953218835
f 41 42 44
f 41 44 43
f 45 47 48
f 45 48 46
f 41 45 46
f 41 46 42
f 43 44 48
f 43 48 47
f 41 43 47
f 41 47 45
f 42 46 48
f 42 48 44
o carm_sector_06
v -0.1100000000 -0.4889374877 0.5018589215
v -0.1100000000 -0.5613845973 0.4192488257
v -0.1100000000 -0.5953218835 0.5951555326
v -0.1100000000 -0.6677689931 0.5125454368
v 0.1100000000 -0.4889374877 0.5018589215
v 0.1100000000 -0.5613845973 0.4192488257
v 0.1100000000 -0.5953218835 0.5951555326
v 0.1100000000 -0.6677689931 0.5125454368
f 49 50 52
f 49 52 51
f 53 55 56
f 53 56 54
f 49 53 54
f 49 54 50
f 51 52 56
f 51 56 55
f 49 51 55
f 49 55 53
f 50 54 56
f 50 56 52
o carm_sector_07
v -0.1100000000 -0.5502602938 0.4337463003
v -0.1100000000 -0.6113048271 0.3423867000
v -0.1100000000 -0.6679122077 0.5123587959
v -0.1100000000 -0.7289567410 0.4209991956
v 0.1100000000 -0.5502602938 0.4337463003
v 0.1100000000 -0.6113048271 0.3423867000
v 0.1100000000 -0.6679122077 0.5123587959
v 0.1100000000 -0.7289567410 0.4209991956
f 57 58 60
f 57 60 59
f 61 63 64
f 61 64 62
f 57 61 62
f 57 62 58
f 59 60 64
f 59 64 63
f 57 59 63
f 57 63 61
f 58 62 64
f 58 64 60
o carm_sector_08
v -0.1100000000 -0.6021679936 0.3582121597
v -0.1100000000 -0.6507654618 0.2596662429
v -0.1100000000 -0.7290743688 0.4207954582
v -0.1100000000 -0.7776718370 0.3222495414
v 0.1100000000 -0.6021679936 0.3582121597
v 0.1100000000 -0.6507654618 0.2596662429
v 0.1100000000 -0.7290743688 0.4207954582
v 0.1100000000 -0.7776718370 0.3222495414
f 65 66 68
f 65 68 67
f 69 71 72
f 69 72 70
f 65 69 70
f 65 70 66
f 67 68 72
f 67 72 71
f 65 67 71
f 65 71 69
f 66 70 72
f 66 72 68
o carm_sector_09
v -0.1100000000 -0.6437724322 0.2765489098
v -0.1100000000 -0.6790913190 0.1725028245
v -0.1100000000 -0.7777618654 0.3220321935
v -0.1100000000 -0.8130807522 0.2179861082
v 0.1100000000 -0.6437724322 0.2765489098
v 0.1100000000 -0.6790913190 0.1725028245
v 0.1100000000 -0.7777618654 0.3220321935
v 0.1100000000 -0.8130807522 0.2179861082
f 73 74 76
f 73 76 75
f 77 79 80
f 77 80 78
f 73 77 78
f 73 78 74
f 75 76 80
f 75 80 79
f 73 75 79
f 73 79 77
f 74 78 80
f 74 80 76
o carm_sector_10
v -0.1100000000 -0.6743617459 0.1901538313
v -0.1100000000 -0.6957977354 0.0823878349
v -0.1100000000 -0.8131416408 0.2177588687
v -0.1100000000 -0.8345776303 0.1099928723
v 0.1100000000 -0.6743617459 0.1901538313
v 0.1100000000 -0.6957977354 0.0823878349
v 0.1100000000 -0.8131416408 0.2177588687
v 0.1100000000 -0.8345776303 0.1099928723
f 81 82 84
f 81 84 83
f 85 87 88
f 85 88 86
f 81 85 86
f 81 86 82
f 83 84 88
f 83 88 87
f 81 83 87
f 81 87 85
f 82 86 88
f 82 88 84
o carm_sector_11
v -0.1100000000 -0.6934125433 0.1005051680
v -0.1100000000 -0.7005988597 -0.0091368335
v -0.1100000000 -0.8346083373 0.1097596293
v -0.1100000000 -0.8417946537 0.0001176278
v 0.1100000000 -0.6934125433 0.1005051680
v 0.1100000000 -0.7005988597 -0.0091368335
v 0.1100000000 -0.8346083373 0.1097596293
v 0.1100000000 -0.8417946537 0.0001176278
f 89 90 92
f 89 92 91
f 93 95 96
f 93 96 94
f 89 93 94
f 89 94 90
f 91 92 96
f 91 96 95
f 89 91 95
f 89 95 93
f 90 94 96
f 90 96 92
o carm_sector_12
v -0.1100000000 -0.7005988597 0.0091368335
v -0.1100000000 -0.6934125433 -0.1005051680
v -0.1100000000 -0.8417946537 -0.0001176278
v -0.1100000000 -0.8346083373 -0.1097596293
v 0.1100000000 -0.7005988597 0.0091368335
v 0.1100000000 -0.6934125433 -0.1005051680
v 0.1100000000 -0.8417946537 -0.0001176278
v 0.1100000000 -0.8346083373 -0.1097596293
f 97 98 100
f 97 100 99
f 101 103 104
f 101 104 102
f 97 101 102
f 97 102 98
f 99 100 104
f 99 104 103
f 97 99 103
f 97 103 101
f 98 102 104
f 98 104 100
o carm_sector_13
v -0.1100000000 -0.6957977354 -0.0823878349
v -0.1100000000 -0.6743617459 -0.1901538313
v -0.1100000000 -0.8345776303 -0.1099928723
v -0.1100000000 -0.8131416408 -0.2177588687
v 0.1100000000 -0.6957977354 -0.0823878349
v 0.1100000000 -0.6743617459 -0.1901538313
v 0.1100000000 -0.8345776303 -0.1099928723
v 0.1100000000 -0.8131416408 -0.2177588687
f 105 106 108
f 105 108 107
f 109 111 112
f 109 112 110
f 105 109 110
f 105 110 106
f 107 108 112
f 107 112 111
f 105 107 111
f 105 111 109
f 106 110 112
f 106 112 108
o carm_sector_14
v -0.1100000000 -0.6790913190 -0.1725028245
v -0.1100000000 -0.6437724322 -0.2765489098
v -0.1100000000 -0.8130807522 -0.2179861082
v -0.1100000000 -0.7777618654 -0.3220321935
v 0.1100000000 -0.6790913190 -0.1725028245
v 0.1100000000 -0.6437724322 -0.2765489098
v 0.1100000000 -0.8130807522 -0.2179861082
v 0.1100000000 -0.7777618654 -0.3220321935
f 113 114 116
f 113 116 115
f 117 119 120
f 117 120 118
f 113 117 118
f 113 118 114
f 115 116 120
f 115 120 119
f 113 115 119
f 113 119 117
f 114 118 120
f 114 120 116
o carm_sector_15
v -0.1100000000 -0.6507654618 -0.2596662429
v -0.1100000000 -0.6021679936 -0.3582121597
v -0.1100000000 -0.7776718370 -0.3222495414
v -0.1100000000 -0.7290743688 -0.4207954582
v 0.1100000000 -0.6507654618 -0.2596662429
v 0.1100000000 -0.6021679936 -0.3582121597
v 0.1100000000 -0.7776718370 -0.3222495414
v 0.1100000000 -0.7290743688 -0.4207954582
f 121 122 124
f 121 124 123
f 125 127 128
f 125 128 126
f 121 125 126
f 121 126 122
f 123 124 128
f 123 128 127
f 121 123 127
f 121 127 125
f 122 126 128
f 122 128 124
o carm_sector_16
v -0.1100000000 -0.6113048271 -0.3423867000
v -0.1100000000 -0.5502602938 -0.4337463003
v -0.1100000000 -0.7289567410 -0.4209991956
v -0.1100000000 -0.6679122077 -0.5123587959
v 0.1100000000 -0.6113048271 -0.3423867000
v 0.1100000000 -0.5502602938 -0.4337463003
v 0.1100000000 -0.7289567410 -0.4209991956
v 0.1100000000 -0.6679122077 -0.5123587959
f 129 130 132
f 129 132 131
f 133 135 136
f 133 136 134
f 129 133 134
f 129 134 130
f 131 132 136
f 131 136 135
f 129 131 135
f 129 135 133
f 130 134 136
f 130 136 132
o carm_sector_17
v -0.1100000000 -0.5613845973 -0.4192488257
v -0.1100000000 -0.4889374877 -0.5018589215
v -0.1100000000 -0.6677689931 -0.5125454368
v -0.1100000000 -0.5953218835 -0.5951555326
v 0.1100000000 -0.5613845973 -0.4192488257
v 0.1100000000 -0.4889374877 -0.5018589215
v 0.1100000000 -0.6677689931 -0.5125454368
v 0.1100000000 -0.5953218835 -0.5951555326
f 137 138 140
f 137 140 139
f 141 143 144
f 141 144 142
f 137 141 142
f 137 142 138
f 139 140 144
f 139 144 143
f 137 139 143
f 137 143 141
f 138 142 144
f 138 144 140
o carm_sector_18
v -0.1100000000 -0.5018589215 -0.4889374877
v -0.1100000000 -0.4192488257 -0.5613845973
v -0.1100000000 -0.5951555326 -0.5953218835
v -0.1100000000 -0.5125454368 -0.6677689931
v 0.1100000000 -0.5018589215 -0.4889374877
v 0.1100000000 -0.4192488257 -0.5613845973
v 0.1100000000 -0.5951555326 -0.5953218835
v 0.1100000000 -0.5125454368 -0.6677689931
f 145 146 148
f 145 148 147
f 149 151 152
f 149 152 150
f 145 149 150
f 145 150 146
f 147 148 152
f 147 152 151
f 145 147 151
f 145 151 149
f 146 150 152
f 146 152 148
o carm_sector_19
v -0.1100000000 -0.4337463003 -0.5502602938
v -0.1100000000 -0.3423867000 -0.6113048271
v -0.1100000000 -0.5123587959 -0.6679122077
v -0.1100000000 -0.4209991956 -0.7289567410
v 0.1100000000 -0.4337463003 -0.5502602938
v 0.1100000000 -0.3423867000 -0.6113048271
v 0.1100000000 -0.5123587959 -0.6679122077
v 0.1100000000 -0.4209991956 -0.7289567410
f 153 154 156
f 153 156 155
f 157 159 160
f 157 160 158
f 153 157 158
f 153 158 154
f 155 156 160
f 155 160 159
f 153 155 159
f 153 159 157
f 154 158 160
f 154 160 156
o carm_sector_20
v -0.1100000000 -0.3582121597 -0.6021679936
v -0.1100000000 -0.2596662429 -0.6507654618
v -0.1100000000 -0.4207954582 -0.7290743688
v -0.1100000000 -0.3222495414 -0.7776718370
v 0.1100000000 -0.3582121597 -0.6021679936
v 0.1100000000 -0.2596662429 -0.6507654618
v 0.1100000000 -0.4207954582 -0.7290743688
v 0.1100000000 -0.3222495414 -0.7776718370
f 161 162 164
f 161 164 163
f 165 167 168
f 165 168 166
f 161 165 166
f 161 166 162
f 163 164 168
f 163 168 167
f 161 163 167
f 161 167 165
f 162 166 168
f 162 168 164
o carm_sector_21
v -0.1100000000 -0.2765489098 -0.6437724322
v -0.1100000000 -0.1725028245 -0.6790913190
v -0.1100000000 -0.3220321935 -0.7777618654
v -0.1100000000 -0.2179861082 -0.8130807522
v 0.1100000000 -0.2765489098 -0.6437724322
v 0.1100000000 -0.1725028245 -0.6790913190
v 0.1100000000 -0.3220321935 -0.7777618654
v 0.1100000000 -0.2179861082 -0.8130807522
f 169 170 172
f 169 172 171
f 173 175 176
f 173 176 174
f 169 173 174
f 169 174 170
f 171 172 176
f 171 176 175
f 169 171 175
f 169 175 173
f 170 174 176
f 170 176 172
o carm_sector_22
v -0.1100000000 -0.1901538313 -0.6743617459
v -0.1100000000 -0.0823878349 -0.6957977354
v -0.1100000000 -0.2177588687 -0.8131416408
v -0.1100000000 -0.1099928723 -0.8345776303
v 0.1100000000 -0.1901538313 -0.6743617459
v 0.1100000000 -0.0823878349 -0.6957977354
v 0.1100000000 -0.2177588687 -0.8131416408
v 0.1100000000 -0.1099928723 -0.8345776303
f 177 178 180
f 177 180 179
f 181 183 184
f 181 184 182
f 177 181 182
f 177 182 178
f 179 180 184
f 179 184 183
f 177 179 183
f 177 183 181
f 178 182 184
f 178 184 180
o carm_sector_23
v -0.1100000000 -0.1005051680 -0.6934125433
v -0.1100000000 0.0091368335 -0.7005988597
v -0.1100000000 -0.1097596293 -0.8346083373
v -0.1100000000 -0.0001176278 -0.8417946537
v 0.1100000000 -0.1005051680 -0.6934125433
v 0.1100000000 0.0091368335 -0.7005988597
v 0.1100000000 -0.1097596293 -0.8346083373
v 0.1100000000 -0.0001176278 -0.8417946537
f 185 186 188
f 185 188 187
f 189 191 192
f 189 192 190
f 185 189 190
f 185 190 186
f 187 188 192
f 187 192 191
f 185 187 191
f 185 191 189
f 186 190 192
f 186 192 188
o detector_housing
v -0.2400000000 -0.2100000000 0.4775000000
v -0.2400000000 -0.2100000000 0.7225000000
v -0.2400000000 0.2100000000 0.4775000000
v -0.2400000000 0.2100000000 0.7225000000
v 0.2400000000 -0.2100000000 0.4775000000
v 0.2400000000 -0.2100000000 0.7225000000
v 0.2400000000 0.2100000000 0.4775000000
v 0.2400000000 0.2100000000 0.7225000000
f 193 194 196
f 193 196 195
f 197 199 200
f 197 200 198
f 193 197 198
f 193 198 194
f 195 196 200
f 195 200 199
f 193 195 199
f 193 199 197
f 194 198 200
f 194 200 196
o source_housing
v -0.1900000000 -0.2000000000 -0.7625000000
v -0.1900000000 -0.2000000000 -0.4775000000
v -0.1900000000 0.2000000000 -0.7625000000
v -0.1900000000 0.2000000000 -0.4775000000
v 0.1900000000 -0.2000000000 -0.7625000000
v 0.1900000000 -0.2000000000 -0.4775000000
v 0.1900000000 0.2000000000 -0.7625000000
v 0.1900000000 0.2000000000 -0.4775000000
f 201 202 204
f 201 204 203
f 205 207 208
f 205 208 206
f 201 205 206
f 201 206 202
f 203 204 208
f 203 208 207
f 201 203 207
f 201 207 205
f 202 206 208
f 202 208 204
