# RTMC synthetic reference. SIMULATION ONLY; meters, Z up.
# Each object is a closed box. Compound objects may overlap at joints.
o link2_housing
v 0.0000000000 -0.0800000000 -0.0700000000
v 0.0000000000 -0.0800000000 0.0700000000
v 0.0000000000 0.0800000000 -0.0700000000
v 0.0000000000 0.0800000000 0.0700000000
v 1.0000000000 -0.0800000000 -0.0700000000
v 1.0000000000 -0.0800000000 0.0700000000
v 1.0000000000 0.0800000000 -0.0700000000
v 1.0000000000 0.0800000000 0.0700000000
f 1 2 4
f 1 4 3
f 5 7 8
f 5 8 6
f 1 5 6
f 1 6 2
f 3 4 8
f 3 8 7
f 1 3 7
f 1 7 5
f 2 6 8
f 2 8 4
