# RTMC synthetic reference. SIMULATION ONLY; meters, Z up.
# Each object is a closed box. Compound objects may overlap at joints.
o robot_base
v -1.6750000000 -0.3000000000 0.0000000000
v -1.6750000000 -0.3000000000 0.2500000000
v -1.6750000000 0.3000000000 0.0000000000
v -1.6750000000 0.3000000000 0.2500000000
v -1.1250000000 -0.3000000000 0.0000000000
v -1.1250000000 -0.3000000000 0.2500000000
v -1.1250000000 0.3000000000 0.0000000000
v -1.1250000000 0.3000000000 0.2500000000
f 1 2 4
f 1 4 3
f 5 7 8
f 5 8 6
f 1 5 6
f 1 6 2
f 3 4 8
f 3 8 7
f 1 3 7
f 1 7 5
f 2 6 8
f 2 8 4
o table_top
v -0.2000000000 -0.2750000000 0.8500000000
v -0.2000000000 -0.2750000000 0.9500000000
v -0.2000000000 0.2750000000 0.8500000000
v -0.2000000000 0.2750000000 0.9500000000
v 2.0000000000 -0.2750000000 0.8500000000
v 2.0000000000 -0.2750000000 0.9500000000
v 2.0000000000 0.2750000000 0.8500000000
v 2.0000000000 0.2750000000 0.9500000000
f 9 10 12
f 9 12 11
f 13 15 16
f 13 16 14
f 9 13 14
f 9 14 10
f 11 12 16
f 11 16 15
f 9 11 15
f 9 15 13
f 10 14 16
f 10 16 12
o table_pedestal
v 1.5000000000 -0.2250000000 0.1000000000
v 1.5000000000 -0.2250000000 0.8500000000
v 1.5000000000 0.2250000000 0.1000000000
v 1.5000000000 0.2250000000 0.8500000000
v 1.9000000000 -0.2250000000 0.1000000000
v 1.9000000000 -0.2250000000 0.8500000000
v 1.9000000000 0.2250000000 0.1000000000
v 1.9000000000 0.2250000000 0.8500000000
f 17 18 20
f 17 20 19
f 21 23 24
f 21 24 22
f 17 21 22
f 17 22 18
f 19 20 24
f 19 24 23
f 17 19 23
f 17 23 21
f 18 22 24
f 18 24 20
o table_base
v 1.2500000000 -0.4000000000 0.0000000000
v 1.2500000000 -0.4000000000 0.1000000000
v 1.2500000000 0.4000000000 0.0000000000
v 1.2500000000 0.4000000000 0.1000000000
v 2.1500000000 -0.4000000000 0.0000000000
v 2.1500000000 -0.4000000000 0.1000000000
v 2.1500000000 0.4000000000 0.0000000000
v 2.1500000000 0.4000000000 0.1000000000
f 25 26 28
f 25 28 27
f 29 31 32
f 29 32 30
f 25 29 30
f 25 30 26
f 27 28 32
f 27 32 31
f 25 27 31
f 25 31 29
f 26 30 32
f 26 32 28
o mattress
v -0.1000000000 -0.2650000000 0.9500000000
v -0.1000000000 -0.2650000000 1.0000000000
v -0.1000000000 0.2650000000 0.9500000000
v -0.1000000000 0.2650000000 1.0000000000
v 1.9000000000 -0.2650000000 0.9500000000
v 1.9000000000 -0.2650000000 1.0000000000
v 1.9000000000 0.2650000000 0.9500000000
v 1.9000000000 0.2650000000 1.0000000000
f 33 34 36
f 33 36 35
f 37 39 40
f 37 40 38
f 33 37 38
f 33 38 34
f 35 36 40
f 35 40 39
f 33 35 39
f 33 39 37
f 34 38 40
f 34 40 36
o patient_test_envelope
v 0.1200000000 -0.2500000000 1.0000000000
v 0.1200000000 -0.2500000000 1.3000000000
v 0.1200000000 0.2500000000 1.0000000000
v 0.1200000000 0.2500000000 1.3000000000
v 1.8000000000 -0.2500000000 1.0000000000
v 1.8000000000 -0.2500000000 1.3000000000
v 1.8000000000 0.2500000000 1.0000000000
v 1.8000000000 0.2500000000 1.3000000000
f 41 42 44
f 41 44 43
f 45 47 48
f 45 48 46
f 41 45 46
f 41 46 42
f 43 44 48
f 43 48 47
f 41 43 47
f 41 47 45
f 42 46 48
f 42 48 44
o patient_head
v -0.1200000000 -0.1200000000 1.0800000000
v -0.1200000000 -0.1200000000 1.3200000000
v -0.1200000000 0.1200000000 1.0800000000
v -0.1200000000 0.1200000000 1.3200000000
v 0.1200000000 -0.1200000000 1.0800000000
v 0.1200000000 -0.1200000000 1.3200000000
v 0.1200000000 0.1200000000 1.0800000000
v 0.1200000000 0.1200000000 1.3200000000
f 49 50 52
f 49 52 51
f 53 55 56
f 53 56 54
f 49 53 54
f 49 54 50
f 51 52 56
f 51 56 55
f 49 51 55
f 49 55 53
f 50 54 56
f 50 56 52
o floor
v -2.5000000000 -2.5000000000 -0.1000000000
v -2.5000000000 -2.5000000000 0.0000000000
v -2.5000000000 2.5000000000 -0.1000000000
v -2.5000000000 2.5000000000 0.0000000000
v 3.5000000000 -2.5000000000 -0.1000000000
v 3.5000000000 -2.5000000000 0.0000000000
v 3.5000000000 2.5000000000 -0.1000000000
v 3.5000000000 2.5000000000 0.0000000000
f 57 58 60
f 57 60 59
f 61 63 64
f 61 64 62
f 57 61 62
f 57 62 58
f 59 60 64
f 59 64 63
f 57 59 63
f 57 63 61
f 58 62 64
f 58 64 60
