# RTMC synthetic reference. SIMULATION ONLY; meters, Z up.
# Each object is a closed box. Compound objects may overlap at joints.
o robot_base
v -0.5250000000 -0.3000000000 0.0000000000
v -0.5250000000 -0.3000000000 0.3500000000
v -0.5250000000 0.3000000000 0.0000000000
v -0.5250000000 0.3000000000 0.3500000000
v 0.0250000000 -0.3000000000 0.0000000000
v 0.0250000000 -0.3000000000 0.3500000000
v 0.0250000000 0.3000000000 0.0000000000
v 0.0250000000 0.3000000000 0.3500000000
f 1 2 4
f 1 4 3
f 5 7 8
f 5 8 6
f 1 5 6
f 1 6 2
f 3 4 8
f 3 8 7
f 1 3 7
f 1 7 5
f 2 6 8
f 2 8 4
o link1_housing
v -0.3366025404 -0.0500000000 0.3500000000
v -0.3366025404 -0.0500000000 0.5100000000
v -0.1633974596 0.0500000000 0.3500000000
v -0.1633974596 0.0500000000 0.5100000000
v 0.0383974596 -0.6995190528 0.3500000000
v 0.0383974596 -0.6995190528 0.5100000000
v 0.2116025404 -0.5995190528 0.3500000000
v 0.2116025404 -0.5995190528 0.5100000000
f 9 10 12
f 9 12 11
f 13 15 16
f 13 16 14
f 9 13 14
f 9 14 10
f 11 12 16
f 11 16 15
f 9 11 15
f 9 15 13
f 10 14 16
f 10 16 12
o elbow_housing
v -0.0389230485 -0.6055960044 0.4300000000
v -0.0389230485 -0.6055960044 0.6800000000
v 0.1689230485 -0.4855960044 0.4300000000
v 0.1689230485 -0.4855960044 0.6800000000
v 0.0810769515 -0.8134421013 0.4300000000
v 0.0810769515 -0.8134421013 0.6800000000
v 0.2889230485 -0.6934421013 0.4300000000
v 0.2889230485 -0.6934421013 0.6800000000
f 17 18 20
f 17 20 19
f 21 23 24
f 21 24 22
f 17 21 22
f 17 22 18
f 19 20 24
f 19 24 23
f 17 19 23
f 17 23 21
f 18 22 24
f 18 24 20
o link2_housing
v 0.1764230088 -0.7108026083 0.6100000000
v 0.1764230088 -0.7108026083 0.7500000000
v 0.0735769912 -0.5882354974 0.6100000000
v 0.0735769912 -0.5882354974 0.7500000000
v 0.9424674519 -0.0680149986 0.6100000000
v 0.9424674519 -0.0680149986 0.7500000000
v 0.8396214343 0.0545521123 0.6100000000
v 0.8396214343 0.0545521123 0.7500000000
f 25 26 28
f 25 28 27
f 29 31 32
f 29 32 30
f 25 29 30
f 25 30 26
f 27 28 32
f 27 32 31
f 25 27 31
f 25 31 29
f 26 30 32
f 26 32 28
o support_rear_beam
v 1.4596927452 -0.8088780062 0.6000000000
v 1.4596927452 -0.8088780062 0.7600000000
v 0.7783378789 0.0031291035 0.6000000000
v 0.7783378789 0.0031291035 0.7600000000
v 1.5822598561 -0.7060319886 0.6000000000
v 1.5822598561 -0.7060319886 0.7600000000
v 0.9009049898 0.1059751211 0.6000000000
v 0.9009049898 0.1059751211 0.7600000000
f 33 34 36
f 33 36 35
f 37 39 40
f 37 40 38
f 33 37 38
f 33 38 34
f 35 36 40
f 35 40 39
f 33 35 39
f 33 39 37
f 34 38 40
f 34 40 36
o support_column
v 1.4596927452 -0.8088780062 0.6800000000
v 1.4596927452 -0.8088780062 1.2000000000
v 1.3568467276 -0.6863108953 0.6800000000
v 1.3568467276 -0.6863108953 1.2000000000
v 1.5822598561 -0.7060319886 0.6800000000
v 1.5822598561 -0.7060319886 1.2000000000
v 1.4794138385 -0.5834648777 0.6800000000
v 1.4794138385 -0.5834648777 1.2000000000
f 41 42 44
f 41 44 43
f 45 47 48
f 45 48 46
f 41 45 46
f 41 46 42
f 43 44 48
f 43 48 47
f 41 43 47
f 41 47 45
f 42 46 48
f 42 48 44
o carm_sector_00
v 0.9107668108 0.2580457858 1.8576673104
v 0.9869772390 0.1813154107 1.8770949146
v 0.9379518446 0.3168925546 1.9834446098
v 1.0141622728 0.2401621795 2.0028722140
v 1.0635066605 0.3862097373 1.7646912928
v 1.1397170887 0.3094793622 1.7841188970
v 1.0906916943 0.4450565062 1.8904685922
v 1.1669021224 0.3683261311 1.9098961964
f 49 50 52
f 49 52 51
f 53 55 56
f 53 56 54
f 49 53 54
f 49 54 50
f 51 52 56
f 51 56 55
f 49 51 55
f 49 55 53
f 50 54 56
f 50 56 52
o carm_sector_01
v 0.9745594492 0.1945461466 1.8749331964
v 1.0473624987 0.1125076907 1.8814462109
v 1.0143221397 0.2399918467 2.0029000440
v 1.0871251892 0.1579533908 2.0094130586
v 1.1272992989 0.3227100981 1.7819571788
v 1.2001023484 0.2406716422 1.7884701933
v 1.1670619894 0.3681557983 1.9099240264
v 1.2398650389 0.2861173423 1.9164370410
f 57 58 60
f 57 60 59
f 61 63 64
f 61 64 62
f 57 61 62
f 57 62 58
f 59 60 64
f 59 64 63
f 57 59 63
f 57 63 61
f 58 62 64
f 58 64 60
o carm_sector_02
v 1.0356164121 0.1265061317 1.8814462109
v 1.1037664026 0.0405632957 1.8749331964
v 1.0872764086 0.1577731745 2.0094130586
v 1.1554263992 0.0718303385 2.0029000440
v 1.1883562618 0.2546700832 1.7884701933
v 1.2565062523 0.1687272472 1.7819571788
v 1.2400162583 0.2859371261 1.9164370410
v 1.3081662489 0.1999942901 1.9099240264
f 65 66 68
f 65 68 67
f 69 71 72
f 69 72 70
f 65 69 70
f 65 70 66
f 67 68 72
f 67 72 71
f 65 67 71
f 65 71 69
f 66 70 72
f 66 72 68
o carm_sector_03
v 1.0928929979 0.0550899245 1.8770949146
v 1.1552238642 -0.0332867858 1.8576673104
v 1.1555663837 0.0716433224 2.0028722140
v 1.2178972500 -0.0167333880 1.9834446098
v 1.2456328476 0.1832538761 1.7841188970
v 1.3079637139 0.0948771657 1.7646912928
v 1.3083062334 0.1998072739 1.9098961964
v 1.3706370997 0.1114305636 1.8904685922
f 73 74 76
f 73 76 75
f 77 79 80
f 77 80 78
f 73 77 78
f 73 78 74
f 75 76 80
f 75 80 79
f 73 75 79
f 73 79 77
f 74 78 80
f 74 80 76
o carm_sector_04
v 1.1454091884 -0.0184805237 1.8619537593
v 1.2008544321 -0.1077789584 1.8299439772
v 1.2180236044 -0.0169240042 1.9833894260
v 1.2734688481 -0.1062224388 1.9513796439
v 1.2981490380 0.1096834278 1.7689777417
v 1.3535942817 0.0203849932 1.7369679596
v 1.3707634541 0.1112399474 1.8904134084
v 1.4262086977 0.0219415127 1.8584036263
f 81 82 84
f 81 84 83
f 85 87 88
f 85 88 86
f 81 85 86
f 81 86 82
f 83 84 88
f 83 88 87
f 81 83 87
f 81 87 85
f 82 86 88
f 82 88 84
o carm_sector_05
v 1.1922664169 -0.0929464023 1.8362818143
v 1.2398773545 -0.1816386403 1.7922375505
v 1.2735794104 -0.1064133935 1.9512980504
v 1.3211903479 -0.1951056315 1.9072537866
v 1.3450062666 0.0352175492 1.7433057967
v 1.3926172042 -0.0534746888 1.6992615329
v 1.4263192601 0.0217505580 1.8583220328
v 1.4739301976 -0.0669416800 1.8142777690
f 89 90 92
f 89 92 91
f 93 95 96
f 93 96 94
f 89 93 94
f 89 94 90
f 91 92 96
f 91 96 95
f 89 91 95
f 89 95 93
f 90 94 96
f 90 96 92
o carm_sector_06
v 1.2326629435 -0.1670335794 1.8005183338
v 1.2716249386 -0.2536020720 1.7451931979
v 1.3212832264 -0.1952936574 1.9071471796
v 1.3602452215 -0.2818621500 1.8518220437
v 1.3854027931 -0.0388696279 1.7075423163
v 1.4243647882 -0.1254381204 1.6522171803
v 1.4740230761 -0.0671297059 1.8141711620
v 1.5129850712 -0.1536981984 1.7588460261
f 97 98 100
f 97 100 99
f 101 103 104
f 101 104 102
f 97 101 102
f 97 102 98
f 99 100 104
f 99 104 103
f 97 99 103
f 97 103 101
f 98 102 104
f 98 104 100
o carm_sector_07
v 1.2659075721 -0.2394744029 1.7552752409
v 1.2955539742 -0.3224379391 1.6896158613
v 1.3603188271 -0.2820440299 1.8516922472
v 1.3899652292 -0.3650075661 1.7860328676
v 1.4186474218 -0.1113104514 1.6622992233
v 1.4482938239 -0.1942739876 1.5966398437
v 1.5130586767 -0.1538800784 1.7587162296
v 1.5427050788 -0.2368436146 1.6930568500
f 105 106 108
f 105 108 107
f 109 111 112
f 109 112 110
f 105 109 110
f 105 110 106
f 107 108 112
f 107 112 111
f 105 107 111
f 105 111 109
f 106 110 112
f 106 112 108
o carm_sector_08
v 1.2914314781 -0.3090293902 1.7013266573
v 1.3112550291 -0.3869684410 1.6264564842
v 1.3900183023 -0.3651801881 1.7858821025
v 1.4098418532 -0.4431192389 1.7110119293
v 1.4441713278 -0.1808654387 1.6083506397
v 1.4639948787 -0.2588044894 1.5334804666
v 1.5427581520 -0.2370162366 1.6929060849
v 1.5625817029 -0.3149552874 1.6180359118
f 113 114 116
f 113 116 115
f 117 119 120
f 117 120 118
f 113 117 118
f 113 118 114
f 115 116 120
f 115 120 119
f 113 115 119
f 113 119 117
f 114 118 120
f 114 120 116
o carm_sector_09
v 1.3087979404 -0.3745084362 1.6395956584
v 1.3184594537 -0.4460894427 1.5567957412
v 1.4098734858 -0.4432796493 1.7108427753
v 1.4195349991 -0.5148606558 1.6280428581
v 1.4615377901 -0.2463444847 1.5466196408
v 1.4711993034 -0.3179254912 1.4638197236
v 1.5626133355 -0.3151156978 1.6178667577
v 1.5722748488 -0.3866967043 1.5350668405
f 121 122 124
f 121 124 123
f 125 127 128
f 125 128 126
f 121 125 126
f 121 126 122
f 123 124 128
f 123 128 127
f 121 123 127
f 121 127 125
f 122 126 128
f 122 128 124
o carm_sector_10
v 1.3177098139 -0.4347911762 1.5711384786
v 1.3170439784 -0.4987893677 1.4818255468
v 1.4195446500 -0.5150061100 1.6278582093
v 1.4188788145 -0.5790043014 1.5385452775
v 1.4704496635 -0.3066272247 1.4781624610
v 1.4697838281 -0.3706254161 1.3888495292
v 1.5722844997 -0.3868421585 1.5348821917
v 1.5716186642 -0.4508403499 1.4455692599
f 129 130 132
f 129 132 131
f 133 135 136
f 133 136 134
f 129 133 134
f 129 134 130
f 131 132 136
f 131 136 135
f 129 131 135
f 129 135 133
f 130 134 136
f 130 136 132
o carm_sector_11
v 1.3180146140 -0.4888461559 1.4971264392
v 1.3070328224 -0.5441665055 1.4028286619
v 1.4188663186 -0.5791323106 1.5383482934
v 1.4078845269 -0.6344526601 1.4440505161
v 1.4707544637 -0.3606822044 1.4041504216
v 1.4597726720 -0.4160025539 1.3098526443
v 1.5716061682 -0.4509683591 1.4453722759
v 1.5606243766 -0.5062887086 1.3510744985
f 137 138 140
f 137 140 139
f 141 143 144
f 141 144 142
f 137 141 142
f 137 142 138
f 139 140 144
f 139 144 143
f 137 139 143
f 137 143 141
f 138 142 144
f 138 144 140
o carm_sector_12
v 1.3097071255 -0.5357484796 1.4188259068
v 1.2885972792 -0.5814444407 1.3211567451
v 1.4078500979 -0.6345610340 1.4438445672
v 1.3867402516 -0.6802569952 1.3461754055
v 1.4624469752 -0.4075845280 1.3258498892
v 1.4413371289 -0.4532804892 1.2281807275
v 1.5605899476 -0.5063970825 1.3508685496
v 1.5394801013 -0.5520930436 1.2531993879
f 145 146 148
f 145 148 147
f 149 151 152
f 149 152 150
f 145 149 150
f 145 150 146
f 147 148 152
f 147 152 151
f 145 147 151
f 145 151 149
f 146 150 152
f 146 152 148
o carm_sector_13
v 1.2929294919 -0.5746956354 1.3375766252
v 1.2620527863 -0.6099853376 1.2382072255
v 1.3866844786 -0.6803438795 1.3459640155
v 1.3558077729 -0.7156335816 1.2465946158
v 1.4456693416 -0.4465316839 1.2446006076
v 1.4147926359 -0.4818213861 1.1452312079
v 1.5394243283 -0.5521799279 1.2529879979
v 1.5085476226 -0.5874696301 1.1536185982
f 153 154 156
f 153 156 155
f 157 159 160
f 157 160 158
f 153 157 158
f 153 158 154
f 155 156 160
f 155 160 159
f 153 155 159
f 153 159 157
f 154 158 160
f 154 160 156
o carm_sector_14
v 1.2679687831 -0.6050212269 1.2547687921
v 1.2278535271 -0.6293008535 1.1553993924
v 1.3557316103 -0.7156974897 1.2463814018
v 1.3156163543 -0.7399771163 1.1470120021
v 1.4207086327 -0.4768572753 1.1617927745
v 1.3805933768 -0.5011369020 1.0624233748
v 1.5084714599 -0.5875335382 1.1534053842
v 1.4683562040 -0.6118131648 1.0540359845
f 161 162 164
f 161 164 163
f 165 167 168
f 165 168 166
f 161 165 166
f 161 166 162
f 163 164 168
f 163 168 167
f 161 163 167
f 161 167 165
f 162 166 168
f 162 168 164
o carm_sector_15
v 1.2352520837 -0.6262063746 1.1718192725
v 1.1865846605 -0.6390604945 1.0741501108
v 1.3155211051 -0.7400169547 1.1468006121
v 1.2668536819 -0.7528710746 1.0491314504
v 1.3879919334 -0.4980424231 1.0788432549
v 1.3393245102 -0.5108965430 0.9811740932
v 1.4682609548 -0.6118530032 1.0538245945
v 1.4195935316 -0.6247071231 0.9561554328
f 169 170 172
f 169 172 171
f 173 175 176
f 173 176 174
f 169 173 174
f 169 174 170
f 171 172 176
f 171 176 175
f 169 171 175
f 169 175 173
f 170 174 176
f 170 176 172
o carm_sector_16
v 1.1953391856 -0.6378885949 1.0901473557
v 1.1389523083 -0.6390972706 0.9958495784
v 1.2667409760 -0.7528861617 1.0489255015
v 1.2103540987 -0.7540948374 0.9546277241
v 1.3480790352 -0.5097246434 0.9971713381
v 1.2916921580 -0.5109333190 0.9028735608
v 1.4194808256 -0.6247222102 0.9559494839
v 1.3630939484 -0.6259308858 0.8616517066
f 177 178 180
f 177 180 179
f 181 183 184
f 181 184 182
f 177 181 182
f 177 182 178
f 179 180 184
f 179 184 183
f 177 179 183
f 177 183 181
f 178 182 184
f 178 184 180
o carm_sector_17
v 1.1489130094 -0.6398680017 1.0111504708
v 1.0857714732 -0.6294105523 0.9218375390
v 1.2102258644 -0.7540849149 0.9544307401
v 1.1470843282 -0.7436274656 0.8651178083
v 1.3016528591 -0.5117040502 0.9181744532
v 1.2385113229 -0.5012466008 0.8288615214
v 1.3629657141 -0.6259209634 0.8614547225
v 1.2998241779 -0.6154635140 0.7721417907
f 185 186 188
f 185 188 187
f 189 191 192
f 189 192 190
f 185 189 190
f 185 190 186
f 187 188 192
f 187 192 191
f 185 187 191
f 185 191 189
f 186 190 192
f 186 192 188
o carm_sector_18
v 1.0967679201 -0.6321107268 0.9361802764
v 1.0279520940 -0.6101660823 0.8533803592
v 1.1469427596 -0.7435927034 0.8649331595
v 1.0781269336 -0.7216480589 0.7821332423
v 1.2495077697 -0.5039467753 0.8432042588
v 1.1806919437 -0.4820021307 0.7604043416
v 1.2996826093 -0.6154287519 0.7719571419
v 1.2308667833 -0.5934841074 0.6891572247
f 193 194 196
f 193 196 195
f 197 199 200
f 197 200 198
f 193 197 198
f 193 198 194
f 195 196 200
f 195 200 199
f 193 195 199
f 193 199 197
f 194 198 200
f 194 200 196
o carm_sector_19
v 1.0397961344 -0.6147494994 0.8665195334
v 0.9664834764 -0.5816931386 0.7916493603
v 1.0779744532 -0.7215890519 0.7819640882
v 1.0046617952 -0.6885326911 0.7070939151
v 1.1925359841 -0.4865855478 0.7735435158
v 1.1192233261 -0.4535291871 0.6986733427
v 1.2307143028 -0.5934251003 0.6889880707
v 1.1574016449 -0.5603687395 0.6141178975
f 201 202 204
f 201 204 203
f 205 207 208
f 205 208 206
f 201 205 206
f 201 206 202
f 203 204 208
f 203 208 207
f 201 203 207
f 201 207 205
f 202 206 208
f 202 208 204
o carm_sector_20
v 0.9789724554 -0.5880813748 0.8033601563
v 0.9024173654 -0.5444789013 0.7377007767
v 1.0045010118 -0.6884504488 0.7069431500
v 0.9279459218 -0.6448479753 0.6412837704
v 1.1317123051 -0.4599174232 0.7103841387
v 1.0551572151 -0.4163149497 0.6447247591
v 1.1572408615 -0.5602864972 0.6139671324
v 1.0806857715 -0.5166840237 0.5483077528
f 209 210 212
f 209 212 211
f 213 215 216
f 213 216 214
f 209 213 214
f 209 214 210
f 211 212 216
f 211 216 215
f 209 211 215
f 209 215 213
f 210 214 216
f 210 216 212
o carm_sector_21
v 0.9153375932 -0.5525626521 0.7477828197
v 0.8368499500 -0.4991601162 0.6924576837
v 0.9277795865 -0.6447439049 0.6411539739
v 0.8492919433 -0.5913413690 0.5858288380
v 1.0680774429 -0.4243987005 0.6548068021
v 0.9895897997 -0.3709961647 0.5994816662
v 1.0805194362 -0.5165799533 0.5481779563
v 1.0020317930 -0.4631774175 0.4928528204
f 217 218 220
f 217 220 219
f 221 223 224
f 221 224 222
f 217 221 222
f 217 222 218
f 219 220 224
f 219 224 223
f 217 219 223
f 217 223 221
f 218 222 224
f 218 224 220
o carm_sector_22
v 0.8499803579 -0.5088010664 0.7007384671
v 0.7709031068 -0.4465122004 0.6566942033
v 0.8491229021 -0.5912172512 0.5857222310
v 0.7700456510 -0.5289283853 0.5416779672
v 1.0027202076 -0.3806371148 0.6077624495
v 0.9236429565 -0.3183482489 0.5637181857
v 1.0018627518 -0.4630532997 0.4927462134
v 0.9227855007 -0.4007644337 0.4487019496
f 225 226 228
f 225 228 227
f 229 231 232
f 229 232 230
f 225 229 230
f 225 230 226
f 227 228 232
f 227 232 231
f 225 227 231
f 225 231 229
f 226 230 232
f 226 232 228
o carm_sector_23
v 0.7840190298 -0.4575453906 0.6630320404
v 0.7057052046 -0.3874359743 0.6310222583
v 0.7698767963 -0.5287863437 0.5415963737
v 0.6915629711 -0.4586769274 0.5095865916
v 0.9367588795 -0.3293814391 0.5700560228
v 0.8584450543 -0.2592720228 0.5380462407
v 0.9226166460 -0.4006223922 0.4486203561
v 0.8443028207 -0.3305129759 0.4166105740
f 233 234 236
f 233 236 235
f 237 239 240
f 237 240 238
f 233 237 238
f 233 238 234
f 235 236 240
f 235 240 239
f 233 235 239
f 233 239 237
f 234 238 240
f 234 240 236
o detector_housing
v 0.9422820595 -0.0672023792 1.7687039850
v 0.9781371661 0.0456603732 1.9831833790
v 0.6463179875 0.2140434553 1.6701847043
v 0.6821730940 0.3269062076 1.8846640983
v 1.2755326406 0.2124280605 1.5658472194
v 1.3113877472 0.3252908129 1.7803266134
v 0.9795685686 0.4936738950 1.4673279386
v 1.0154236752 0.6065366473 1.6818073327
f 241 242 244
f 241 244 243
f 245 247 248
f 245 248 246
f 241 245 246
f 241 246 242
f 243 244 248
f 243 248 247
f 241 243 247
f 241 247 245
f 242 246 248
f 242 248 244
o source_housing
v 0.7884781547 -0.6026016053 0.6596990132
v 0.8301871562 -0.4713122811 0.9091954511
v 0.5066076099 -0.3347484296 0.5658711268
v 0.5483166114 -0.2034591054 0.8153675647
v 1.0523015314 -0.3812275072 0.4991040737
v 1.0940105329 -0.2499381830 0.7486005116
v 0.7704309867 -0.1133743315 0.4052761873
v 0.8121399882 0.0179149927 0.6547726252
f 249 250 252
f 249 252 251
f 253 255 256
f 253 256 254
f 249 253 254
f 249 254 250
f 251 252 256
f 251 256 255
f 249 251 255
f 249 255 253
f 250 254 256
f 250 256 252
o table_top
v -0.2000000000 -0.2750000000 0.8500000000
v -0.2000000000 -0.2750000000 0.9500000000
v -0.2000000000 0.2750000000 0.8500000000
v -0.2000000000 0.2750000000 0.9500000000
v 2.0000000000 -0.2750000000 0.8500000000
v 2.0000000000 -0.2750000000 0.9500000000
v 2.0000000000 0.2750000000 0.8500000000
v 2.0000000000 0.2750000000 0.9500000000
f 257 258 260
f 257 260 259
f 261 263 264
f 261 264 262
f 257 261 262
f 257 262 258
f 259 260 264
f 259 264 263
f 257 259 263
f 257 263 261
f 258 262 264
f 258 264 260
o table_pedestal
v 1.5000000000 -0.2250000000 0.1000000000
v 1.5000000000 -0.2250000000 0.8500000000
v 1.5000000000 0.2250000000 0.1000000000
v 1.5000000000 0.2250000000 0.8500000000
v 1.9000000000 -0.2250000000 0.1000000000
v 1.9000000000 -0.2250000000 0.8500000000
v 1.9000000000 0.2250000000 0.1000000000
v 1.9000000000 0.2250000000 0.8500000000
f 265 266 268
f 265 268 267
f 269 271 272
f 269 272 270
f 265 269 270
f 265 270 266
f 267 268 272
f 267 272 271
f 265 267 271
f 265 271 269
f 266 270 272
f 266 272 268
o table_base
v 1.2500000000 -0.4000000000 0.0000000000
v 1.2500000000 -0.4000000000 0.1000000000
v 1.2500000000 0.4000000000 0.0000000000
v 1.2500000000 0.4000000000 0.1000000000
v 2.1500000000 -0.4000000000 0.0000000000
v 2.1500000000 -0.4000000000 0.1000000000
v 2.1500000000 0.4000000000 0.0000000000
v 2.1500000000 0.4000000000 0.1000000000
f 273 274 276
f 273 276 275
f 277 279 280
f 277 280 278
f 273 277 278
f 273 278 274
f 275 276 280
f 275 280 279
f 273 275 279
f 273 279 277
f 274 278 280
f 274 280 276
o mattress
v -0.1000000000 -0.2650000000 0.9500000000
v -0.1000000000 -0.2650000000 1.0000000000
v -0.1000000000 0.2650000000 0.9500000000
v -0.1000000000 0.2650000000 1.0000000000
v 1.9000000000 -0.2650000000 0.9500000000
v 1.9000000000 -0.2650000000 1.0000000000
v 1.9000000000 0.2650000000 0.9500000000
v 1.9000000000 0.2650000000 1.0000000000
f 281 282 284
f 281 284 283
f 285 287 288
f 285 288 286
f 281 285 286
f 281 286 282
f 283 284 288
f 283 288 287
f 281 283 287
f 281 287 285
f 282 286 288
f 282 288 284
o patient_test_envelope
v 0.0000000000 -0.2500000000 1.0000000000
v 0.0000000000 -0.2500000000 1.3000000000
v 0.0000000000 0.2500000000 1.0000000000
v 0.0000000000 0.2500000000 1.3000000000
v 1.8000000000 -0.2500000000 1.0000000000
v 1.8000000000 -0.2500000000 1.3000000000
v 1.8000000000 0.2500000000 1.0000000000
v 1.8000000000 0.2500000000 1.3000000000
f 289 290 292
f 289 292 291
f 293 295 296
f 293 296 294
f 289 293 294
f 289 294 290
f 291 292 296
f 291 296 295
f 289 291 295
f 289 295 293
f 290 294 296
f 290 296 292
o floor
v -2.5000000000 -2.5000000000 -0.1000000000
v -2.5000000000 -2.5000000000 0.0000000000
v -2.5000000000 2.5000000000 -0.1000000000
v -2.5000000000 2.5000000000 0.0000000000
v 3.5000000000 -2.5000000000 -0.1000000000
v 3.5000000000 -2.5000000000 0.0000000000
v 3.5000000000 2.5000000000 -0.1000000000
v 3.5000000000 2.5000000000 0.0000000000
f 297 298 300
f 297 300 299
f 301 303 304
f 301 304 302
f 297 301 302
f 297 302 298
f 299 300 304
f 299 304 303
f 297 299 303
f 297 303 301
f 298 302 304
f 298 304 300
